<svg width="62" height="36" viewBox="0 0 62 36" fill="none" xmlns="http://www.w3.org/2000/svg">
<path fill-rule="evenodd" clip-rule="evenodd" d="M6.84542 12.6977H13.4567C13.1943 11.1089 11.8142 9.89722 10.1511 9.89722C8.48795 9.89722 7.10784 11.1089 6.84542 12.6977ZM14.4672 12.6977H16.3022H17.3022V13.6977V25.9999V26.9999H16.3022H4H3V25.9999V13.6977V12.6977H4H5.83493C6.10533 10.5546 7.93465 8.89722 10.1511 8.89722C12.3675 8.89722 14.1968 10.5546 14.4672 12.6977ZM4 13.6977H16.3022V25.9999H4V13.6977Z" fill="#292933"/>
<rect x="24" width="38" height="36" rx="18" fill="#292933"/>
<path d="M39.5234 13.5991C40.4121 13.5991 41.1273 13.8022 41.6689 14.2085C42.2148 14.6105 42.4878 15.1543 42.4878 15.8398C42.4878 16.3138 42.3566 16.737 42.0942 17.1094C41.8319 17.4775 41.4087 17.8076 40.8247 18.0996C41.5187 18.472 42.016 18.8613 42.3164 19.2676C42.6211 19.6696 42.7734 20.1118 42.7734 20.5942C42.7734 21.356 42.4751 21.9696 41.8784 22.4351C41.2817 22.8963 40.4967 23.127 39.5234 23.127C38.5078 23.127 37.7101 22.9111 37.1304 22.4795C36.5506 22.0479 36.2607 21.4364 36.2607 20.645C36.2607 20.116 36.4004 19.6463 36.6797 19.2358C36.9632 18.8254 37.416 18.4635 38.0381 18.1504C37.5091 17.8161 37.1283 17.4585 36.8955 17.0776C36.6628 16.6968 36.5464 16.2799 36.5464 15.8271C36.5464 15.1628 36.8215 14.6253 37.3716 14.2148C37.9217 13.8044 38.639 13.5991 39.5234 13.5991ZM38.0762 20.5308C38.0762 20.8947 38.2031 21.1782 38.457 21.3813C38.7109 21.5845 39.0579 21.686 39.498 21.686C39.9847 21.686 40.3486 21.5824 40.5898 21.375C40.8311 21.1634 40.9517 20.8862 40.9517 20.5435C40.9517 20.2599 40.8311 19.9954 40.5898 19.75C40.3529 19.5003 39.9657 19.2358 39.4282 18.9565C38.5269 19.3713 38.0762 19.896 38.0762 20.5308ZM39.5107 15.0337C39.1764 15.0337 38.9056 15.1204 38.6982 15.2939C38.4951 15.4632 38.3936 15.6917 38.3936 15.9795C38.3936 16.2334 38.474 16.4619 38.6348 16.665C38.7998 16.8639 39.096 17.0692 39.5234 17.2808C39.9382 17.0861 40.228 16.8872 40.3931 16.6841C40.5581 16.481 40.6406 16.2461 40.6406 15.9795C40.6406 15.6875 40.5348 15.4569 40.3232 15.2876C40.1117 15.1183 39.8408 15.0337 39.5107 15.0337ZM50.2002 17.6807C50.2002 19.5088 49.8151 20.8735 49.0449 21.7749C48.2747 22.6763 47.1089 23.127 45.5474 23.127C44.9972 23.127 44.5804 23.0973 44.2969 23.0381V21.4639C44.6523 21.5527 45.0247 21.5972 45.4141 21.5972C46.07 21.5972 46.6095 21.502 47.0327 21.3115C47.4559 21.1169 47.7796 20.8143 48.0039 20.4038C48.2282 19.9891 48.3573 19.4199 48.3911 18.6963H48.3149C48.0695 19.0941 47.786 19.3734 47.4644 19.5342C47.1427 19.695 46.7407 19.7754 46.2583 19.7754C45.45 19.7754 44.8132 19.5173 44.3477 19.001C43.8822 18.4805 43.6494 17.759 43.6494 16.8364C43.6494 15.842 43.9308 15.057 44.4937 14.4814C45.0607 13.9017 45.8309 13.6118 46.8042 13.6118C47.4897 13.6118 48.0885 13.7726 48.6006 14.0942C49.1169 14.4159 49.5125 14.8835 49.7876 15.4971C50.0627 16.1064 50.2002 16.8343 50.2002 17.6807ZM46.8423 15.186C46.436 15.186 46.1187 15.3257 45.8901 15.605C45.6616 15.8843 45.5474 16.2863 45.5474 16.811C45.5474 17.2596 45.651 17.6151 45.8584 17.8774C46.0658 18.1398 46.381 18.271 46.8042 18.271C47.202 18.271 47.5426 18.1419 47.8262 17.8838C48.1097 17.6214 48.2515 17.321 48.2515 16.9824C48.2515 16.4788 48.1182 16.0535 47.8516 15.7065C47.5892 15.3595 47.2528 15.186 46.8423 15.186Z" fill="white"/>
</svg>
